<svg width="190" height="27" viewBox="0 0 190 27" fill="none" xmlns="http://www.w3.org/2000/svg">
<path d="M72.9741 3.72938V10.9511H64.8776V3.73333H60.413V22.6884H64.8776V15.0637H72.978V22.6884H77.4465V3.72938H72.9741ZM93.8037 3.72938L89.1319 11.2356L84.4679 3.72938H79.1979L86.9074 16.1185V22.6844H91.3681V16.1185L99.0776 3.72938H93.8037ZM113.433 3.72938V17.6197C113.433 18.1491 113.042 18.5718 112.487 18.5718H105.333V3.73333H100.868V22.6884H114.059C115.231 22.6884 116.178 22.3328 116.866 21.6415C117.55 20.9462 117.898 19.9941 117.898 18.8128V3.72938H113.433ZM135.228 3.72938H122.034V22.6844H126.491V7.83012H133.661C134.235 7.83012 134.599 8.28839 134.599 8.77827V22.6844H139.064V7.60494C139.064 6.41975 138.712 5.4637 138.035 4.77234C137.34 4.07704 136.401 3.72938 135.228 3.72938ZM156.394 3.72938H143.2V22.6844H156.394C157.567 22.6844 158.505 22.3289 159.19 21.6375C159.881 20.9422 160.226 19.9901 160.226 18.8089V7.60494C160.226 6.41975 159.881 5.4637 159.19 4.77234C158.505 4.07704 157.563 3.72938 156.394 3.72938ZM155.765 8.81383V17.5921C155.769 17.7202 155.748 17.8479 155.702 17.9674C155.656 18.0869 155.586 18.1958 155.497 18.2874C155.408 18.3789 155.302 18.4514 155.185 18.5003C155.068 18.5492 154.942 18.5735 154.815 18.5718H147.657V7.83407H154.784C155.37 7.83407 155.761 8.24494 155.761 8.81383M168.005 3.72938C166.832 3.72938 165.886 4.07704 165.202 4.77234C164.514 5.4716 164.174 6.4237 164.174 7.60494V22.6844H168.623V16.8217H176.731V22.6844H181.192V3.72938H168.005ZM176.731 7.83407V12.717H168.623V8.79012C168.623 8.32395 168.983 7.83012 169.577 7.83012L176.731 7.83407ZM185.535 22.6844H190V3.72938H185.535V22.6844ZM25.5132 26.4099C39.6068 26.4099 51.0342 20.4958 51.0342 13.2069C51.0342 5.91012 39.6068 0 25.5132 0C11.4235 0 0 5.90617 0 13.2069C0 20.4958 11.4235 26.4099 25.5132 26.4099ZM30.3218 19.9269C29.8918 20.9264 29.1607 23.0558 27.4796 23.9052C26.9439 24.1524 26.3639 24.2868 25.7751 24.3002H25.5171C20.8101 24.3002 16.4237 23.6365 12.7566 22.5106L12.6158 22.4553C12.2757 22.3407 12.1037 22.1827 12.1037 21.9852C12.1037 21.8193 12.1936 21.6889 12.3148 21.5664L12.5455 21.361C13.3977 20.6499 15.9467 18.7812 20.7514 16.9165C22.4364 16.2686 24.5475 15.4588 26.7564 14.9847C28.0504 14.7121 32.8551 13.9694 30.3179 19.9309M43.2113 6.61728C43.3012 6.45926 43.4224 6.32494 43.6414 6.31309C43.7586 6.30123 43.9228 6.32889 44.1691 6.48691C47.1638 8.34765 48.9426 10.6785 48.9426 13.203C48.9426 17.7501 43.1527 21.6652 34.8685 23.3758C34.3368 23.4825 33.9811 23.4785 33.8638 23.3442C33.7778 23.2652 33.7543 23.1151 33.8638 22.9333C33.9255 22.8229 33.9989 22.7196 34.0827 22.6252C38.5942 17.2523 42.0307 9.32345 43.0041 7.04C43.0823 6.88197 43.1527 6.72395 43.2113 6.61728ZM20.7866 6.45136C21.2167 5.4558 21.9477 3.32642 23.6288 2.48099C24.137 2.2242 24.7704 2.10173 25.3294 2.08593H25.5835C30.2984 2.08593 34.677 2.74173 38.3518 3.87555C38.3792 3.88741 38.4652 3.91506 38.4926 3.93086C38.8288 4.04543 39.0008 4.20346 39.0008 4.39704C39.0008 4.56691 38.9109 4.69333 38.7936 4.81185C38.7389 4.86716 38.6646 4.93037 38.5591 5.01728C37.7146 5.73629 35.1617 7.60099 30.357 9.46173C28.6642 10.1136 26.557 10.9235 24.356 11.3936C23.058 11.6701 18.2494 12.4128 20.7866 6.45136ZM16.1656 3.02222C16.6973 2.91951 17.0492 2.91951 17.1782 3.05383C17.2564 3.14074 17.2759 3.28296 17.1743 3.46074C17.1104 3.57071 17.0357 3.67394 16.9514 3.76889C12.4399 9.14568 9.0035 17.0706 8.02222 19.362C7.95185 19.52 7.87757 19.678 7.81502 19.7807C7.72901 19.9388 7.60782 20.077 7.3928 20.0889C7.27551 20.1007 7.10741 20.0652 6.8572 19.9111C3.86255 18.0543 2.09156 15.7235 2.09156 13.199C2.09156 8.6479 7.87757 4.73284 16.1656 3.02617" fill="#002E6B"/>
</svg>
